# xmcd
#
# Track frame offsets:
#	150
#	23283
#	45732
#	71122
#	98559
#	113518
#	159640
#	183523
#	210408
#	240562
#	256003
#
# Disc length: 3779 seconds
#
# Revision: 17
# Processed by: cddbd v1.5.2PL0 Copyright (c) Steve Scherf et al.
# Submitted via: Jack! The Knife 20 Magnifico
#
DISCID=800ec10b
DTITLE=Savatage - Poets And Madmen
DYEAR=2001
DGENRE=Heavy Metal
TTITLE0=Stay With Me Awhile
TTITLE1=There In The Silence
TTITLE2=Commissar
TTITLE3=I Seek Power
TTITLE4=Drive
TTITLE5=Morphine Child
TTITLE6=The Rumor
TTITLE7=Man In The Mirror
TTITLE8=Surrender
TTITLE9=Awaken
TTITLE10=Back To A Reason
EXTD=Paul O'Neill
EXTT0=Caffery, Oliva, O'Neill
EXTT1=Caffery, Oliva, O'Neill
EXTT2=Caffery, Oliva, O'Neill
EXTT3=Caffery, Oliva, O'Neill
EXTT4=Caffery, Oliva, O'Neill
EXTT5=Caffery, Oliva, O'Neill
EXTT6=Caffery, Oliva, O'Neill
EXTT7=Caffery, Oliva, O'Neill
EXTT8=Oliva, O'Neill
EXTT9=Caffery, Oliva, O'Neill
EXTT10=Oliva, O'Neill
PLAYORDER=
